<?xml version="1.0" encoding="utf-8"?>
<!-- Generator: Adobe Illustrator 17.0.2, SVG Export Plug-In . SVG Version: 6.00 Build 0)  -->
<!DOCTYPE svg PUBLIC "-//W3C//DTD SVG 1.1//EN" "http://www.w3.org/Graphics/SVG/1.1/DTD/svg11.dtd">
<svg version="1.1" id="Layer_1" xmlns="http://www.w3.org/2000/svg" xmlns:xlink="http://www.w3.org/1999/xlink" x="0px" y="0px"
	 viewBox="0 0 288.032 124.17" enable-background="new 0 0 288.032 124.17"
	 xml:space="preserve">
<g>
	<path fill="#FFFFFF" d="M0,0v124.17h288.032V0H0z"/>
	<g>
		<rect x="170.4" y="2.487" fill="#7C81B8" width="115.149" height="119.208"/>
		<path fill="#FFFFFF" d="M275.535,61.314c0,26.261-21.307,47.555-47.561,47.555c-26.275,0-47.555-21.294-47.555-47.555
			c0-26.266,21.279-47.56,47.555-47.56C254.229,13.754,275.535,35.047,275.535,61.314z"/>
		<g>
			<g>
				<path fill="#FF9600" d="M203.296,70.6c0.494-0.229,1.607-0.726,2.105-0.973c0.57-0.281,0.494-0.535,0.323-1.006
					c-0.747-2.273-1.124-4.696-1.124-7.209c0-12.892,10.475-23.393,23.379-23.393c12.873,0,23.369,10.5,23.369,23.393
					c0,3.31-0.699,6.467-1.936,9.323c-0.094,0.2-0.109,0.598,0.229,0.765c0.373,0.16,1.795,0.795,2.208,0.962
					c0.415,0.173,0.681,0.066,0.892-0.372c1.415-3.277,2.199-6.887,2.199-10.678c0-14.885-12.095-26.989-26.961-26.989
					c-14.881,0-26.967,12.104-26.967,26.989c0,3.057,0.506,5.987,1.451,8.723C202.6,70.561,202.818,70.816,203.296,70.6z"/>
				<path fill="#FF9600" d="M196.445,73.77c0.568-0.275,2.49-1.15,2.994-1.402c0.523-0.232,0.4-0.662,0.326-0.875
					c-1.138-3.152-1.74-6.527-1.74-10.069c0-16.539,13.431-29.973,29.965-29.973c16.496,0,29.935,13.435,29.935,29.973
					c0,4.238-0.881,8.259-2.473,11.914c-0.094,0.191-0.227,0.632,0.252,0.827c0.482,0.199,2.633,1.165,3.037,1.341
					c0.426,0.177,0.69,0.105,0.894-0.388c1.849-4.182,2.845-8.828,2.845-13.694c0-19.046-15.474-34.539-34.49-34.539
					c-19.053,0-34.52,15.493-34.52,34.539c0,4.196,0.754,8.204,2.131,11.941C195.686,73.59,195.867,74.037,196.445,73.77z"/>
				<path fill="#FF9600" d="M187.127,78.06c0.666-0.325,4.738-2.202,5.445-2.517c0.717-0.32,0.404-0.875,0.301-1.166
					c-1.5-4.052-2.32-8.408-2.32-12.965c0-20.659,16.78-37.45,37.426-37.45c20.625,0,37.41,16.79,37.41,37.45
					c0,5.227-1.076,10.199-3.013,14.726c-0.126,0.274-0.263,0.833,0.415,1.124c0.666,0.289,4.607,2.029,5.15,2.25
					c0.532,0.264,0.934,0.206,1.299-0.598c2.285-5.387,3.539-11.303,3.539-17.502c0-24.726-20.1-44.866-44.801-44.866
					c-24.722,0-44.82,20.139-44.82,44.866c0,5.686,1.073,11.127,3,16.129C186.274,77.818,186.463,78.368,187.127,78.06z"/>
			</g>
			<g>
				<path fill="#FE230A" d="M227.994,51.675c2.64,0,4.805-2.145,4.805-4.796c0-2.674-2.165-4.819-4.805-4.819
					c-2.668,0-4.793,2.145-4.793,4.819C223.201,49.53,225.326,51.675,227.994,51.675z"/>
				<path fill="#FE230A" d="M229.754,76.839c0.934,0,1.695-0.765,1.695-1.701V64.604c0.039-1.328,0.986-3.047,1.915-4.047
					l9.92-9.911c0.675-0.677,0.675-1.767,0-2.417l-1.806-1.808c-0.665-0.674-1.75-0.674-2.407,0l-8.956,8.977
					c-0.599,0.572-1.006,0.939-2.121,0.939c-1.111,0-1.533-0.367-2.111-0.939l-8.973-8.977c-0.673-0.674-1.738-0.674-2.406,0
					l-1.802,1.808c-0.665,0.651-0.665,1.741,0,2.417l9.919,9.911c0.938,1,1.871,2.719,1.912,4.047v10.534
					c0,0.937,0.76,1.701,1.699,1.701H229.754z"/>
			</g>
			<path fill="#10167F" d="M261.045,80.561c-1.688,0.617-4.814,3.711-6.246,4.969l-0.377,0.072c0.498-0.564,2.659-3.303,3.227-4.242
				c1.709-2.83-1.515-5.508-5.068-3.466c-1.338,0.765-3.582,3.138-4.674,3.981l-0.352,0.081c0.486-0.47,2.485-3.107,3.039-3.944
				c1.541-2.305-1.713-4.473-4.512-2.789c-1.979,1.191-3.605,2.822-5.269,4.11l-0.284,0.072c0.459-0.438,1.559-1.746,1.986-2.212
				c1.654-1.846-0.717-3.988-3.211-2.699c-2.385,1.229-5.85,4.661-9.61,7.08c1.752,0.949,4.833,1.082,9.712,3.168
				c4.889,2.091,6.454,6.956,3.279,10.799c-2.957,3.555-7.443,2.348-11.314,1.152c-4.488-1.396-6.068-2.861-11.479-4.736
				c-3.531-1.228-4.971-1.198-4.906-2.225c0.066-1.151,3.104-0.458,5.959,0.577c7.92,2.864,18.443,9.395,21.021,2.364
				c2.037-5.545-7.087-7.941-10.571-8.61c-4.873-0.93-8.223-4.498-12.446-6.772c-6.358-3.437-11.26-3.521-14.895-2.861
				c-3.908,0.703-9.488,3.9-12.867,5.92c-2.339,1.382-2.174,3.492,0.122,6.769c8.114,11.538,21.509,19.077,36.667,19.077
				c16.087,0,30.191-8.527,38.092-21.25C267.812,82.136,265.059,79.128,261.045,80.561z"/>
		</g>
		<rect x="2.483" y="2.487" fill="#10167F" width="167.917" height="119.208"/>
		<g>
			<path fill="#FFFFFF" d="M132.56,111.422c0.007,1.285,4.606,2.684,7.014,2.684c2.415,0,5.778-0.904,7.518-5.174
				c1.832-4.504,9.41-30.465,9.41-30.465l0.85-0.006c1.705-0.306,2.316-1.33,2.316-3.933c0-0.924-0.117-1.008-0.882-1.008h-6.214
				c-0.606,0.02-0.661,0.111-0.851,0.703l-5.178,20.026c0,0-5.325-20.026-5.325-20.023c-0.17-0.595-0.249-0.687-0.846-0.706h-6.249
				c-0.755,0-0.892,0.084-0.892,1.008c0,2.613,0.631,3.646,2.351,3.933l0.869,0.006c0,0,4.974,17.419,7.603,24.725
				c0,0-0.392,1.408-0.392,1.42c-0.84,2.715-2.293,3.984-4.58,3.984c-0.541,0-3.606-0.467-3.606-0.467
				c-1.733-0.143-2.192,0.584-2.403,1.226C132.774,110.248,132.56,111.231,132.56,111.422z"/>
			<path fill="#FFFFFF" d="M111.355,63.795h-7.42c-0.652,0-0.67,0.055-0.778,0.712l-4.174,25.938l-5.052-25.813
				c-0.114-0.69-0.227-0.837-1.025-0.837h-3.395c-1.252,0-1.298,0.187-1.455,0.881l-5.268,25.77l-3.953-25.938
				c-0.089-0.657-0.121-0.712-0.766-0.712h-7.615c-0.793,0-0.922,0.074-0.922,1.039c0,2.854,0.682,3.898,2.715,4.127l0.765,0.035
				l5.808,31.91c0.188,0.736,0.283,0.891,0.975,0.891h5.027c0.8,0,0.826-0.049,0.967-0.891l5-24.809l4.23,24.82
				c0.14,0.83,0.157,0.879,0.974,0.879h5.132c0.678,0,0.783-0.154,0.968-0.891l6.576-31.93l0.735-0.016
				c2.031-0.229,2.702-1.285,2.702-4.127C112.106,63.93,111.98,63.834,111.355,63.795z"/>
			<path fill="#FFFFFF" d="M130.69,96.795c-0.294-1.1-0.585-2.494-0.585-5.062V81.69c0-6.322-2.745-9.138-8.986-9.138
				c-4.34,0-8.935,1.878-8.935,3.059c0,0.156,0.191,1.063,0.474,1.898c0.126,0.385,0.418,1.251,2.265,1.106
				c0.754-0.059,3.94-0.669,5.282-0.669c3.532,0,3.88,2.06,3.88,4.494v1.994c-4.412,0-13.907,0.042-13.907,9.609
				c0,5.39,2.984,8.728,7.806,8.728c3.655,0,5.473-2.001,6.566-3.21l0.415-0.466l0.137,0.725c0.223,1.167,0.441,1.977,1.352,1.977
				h6.393c0.812,0,0.903-0.06,0.903-0.997C133.75,97.947,133.057,96.936,130.69,96.795z M124.085,95.461
				c-0.696,0.764-2.161,2.324-4.188,2.324c-2.103,0-3.697-1.789-3.697-4.143c0-5.219,6.193-4.922,7.886-4.803V95.461z"/>
			<path fill="#FFFFFF" d="M85.718,49.756l-0.673-0.008V27.125c0-0.555-0.034-0.615-0.553-0.615h-8.951
				c-0.773,0-0.88,0.06-0.88,0.983c0,3.085,0.819,4.024,3.464,4.024h0.648v18.231l-0.681,0.008c-2.649,0-3.458,0.953-3.458,4.032
				c0,0.918,0.122,0.993,0.891,0.993h12.785c0.745,0,0.889-0.075,0.889-0.993C89.199,50.745,88.331,49.756,85.718,49.756z"/>
			<path fill="#FFFFFF" d="M81.84,15.774c-2.135,0-3.803,1.783-3.803,4.056c0,2.248,1.701,4.088,3.803,4.088
				c2.068,0,3.744-1.84,3.744-4.088C85.584,17.592,83.908,15.774,81.84,15.774z"/>
			<path fill="#FFFFFF" d="M39.51,22.939h0.175c2.7,0,3.569-1.009,3.569-4.157c0-0.939-0.119-1.02-0.916-1.02H30.028
				c-0.707,0-0.813,0.112-0.876,0.54l-0.034,0.48c0,3.136,0.858,4.139,3.519,4.157h0.182v18.569c0,3.545,0,8.385-5.705,8.385
				c-5.275,0-5.697-3.803-5.697-8.385V22.939h0.175c2.656-0.018,3.517-1.022,3.517-4.157c0,0-0.039-0.581-0.039-0.588
				c-0.066-0.331-0.191-0.432-0.872-0.432h-12.3c-0.789,0-0.916,0.081-0.916,1.02c0,3.184,0.822,4.157,3.58,4.157h0.162v18.569
				c0,9.991,3.713,14.262,12.391,14.262c8.679,0,12.397-4.271,12.397-14.262V22.939z"/>
			<path fill="#FFFFFF" d="M68.06,49.756V34.493c0-6.198-2.042-8.985-6.601-8.985c-4.066,0-6.323,2.383-8.076,4.181
				c-0.129-0.645-0.274-1.17-0.274-1.17c-0.279-1.245-0.5-2.009-1.303-2.009h-6.922c-0.77,0-0.871,0.06-0.871,0.983
				c0,2.921,0.719,3.964,3.187,4.014c0.349,1.224,0.563,2.229,0.563,5.14v13.109c-2.6,0.015-3.404,0.97-3.404,4.032
				c0,0.918,0.13,0.993,0.896,0.993h8.229c0.505,0,0.531-0.079,0.531-0.617l0.006-20.474c0.748-0.775,2.459-2.477,4.664-2.477
				c3.117,0,3.117,3.555,3.117,5.08v17.871c0,0.539,0.014,0.617,0.536,0.617h8.216c0.743,0,0.879-0.075,0.879-0.993
				C71.434,50.78,70.594,49.784,68.06,49.756z"/>
			<path fill="#FFFFFF" d="M101.102,55.77c3.657,0,6.615-0.961,6.615-1.734c0-0.138-0.211-1.214-0.347-1.748
				c-0.503-2.125-0.694-2.914-4.575-2.43c-0.5,0.064-0.917-0.051-1.227-0.354c-0.762-0.755-0.762-2.426-0.762-3.763V31.517h3.48
				c2.669,0,3.477-0.939,3.477-4.024c0-0.923-0.119-0.983-0.893-0.983h-6.064v-7.956c0-0.754-0.064-0.789-0.351-0.792
				c-0.273,0-1.55,0.167-2.196,0.257c-1.79,0.303-3.715,1.687-3.715,4.885v3.606h-3.574c-0.77,0-0.879,0.06-0.879,0.983
				c0,3.085,0.809,4.024,3.454,4.024h0.999v13.239C94.545,50.168,94.545,55.77,101.102,55.77z"/>
			<path fill="#FFFFFF" d="M131.507,41.152c0-10.366-3.452-15.644-10.248-15.644c-6.728,0-11.24,6.201-11.24,15.423
				c0,12.251,6.259,14.839,11.505,14.839c4.235,0,9.157-1.975,9.157-3.232c0-0.205-0.218-1.145-0.499-2.007
				c-0.2-0.625-0.559-1.266-2.346-1.176c-1.37,0.07-3.592,0.711-5.631,0.711c-3.91,0-5.908-2.45-5.923-7.661h14.214
				C131.328,42.404,131.507,42.197,131.507,41.152z M116.497,37.419l0.044-0.5c0.173-1.913,0.572-6.405,4.578-6.405
				c3.908,0,3.933,4.578,3.933,6.905H116.497z"/>
			<path fill="#FFFFFF" d="M156.775,49.756c-0.344-1.104-0.561-2.262-0.561-5.055V16.526c0-0.544-0.045-0.618-0.559-0.618h-8.254
				c-0.769,0-0.902,0.074-0.902,0.988c0,2.981,0.796,3.963,3.271,4.018l0.162,0.002v6.497l-0.508-0.348
				c-0.943-0.65-2.22-1.558-4.979-1.558c-6.433,0-9.846,5.646-9.846,16.293c0,9.005,3.107,13.969,8.762,13.969
				c4.467,0,7.422-3.273,7.422-3.273l0.355,1.22c0.271,0.955,0.301,1.065,1.08,1.065h7.25c0.76,0,0.893-0.075,0.893-0.993
				C160.363,50.753,159.562,49.756,156.775,49.756z M145.443,50.359c-3.811,0-4.568-3.487-4.568-9.55
				c0-6.416,0.793-9.882,4.886-9.882c1.631,0,2.825,0.353,4.173,1.226v16.061C149.125,49.153,147.973,50.359,145.443,50.359z"/>
		</g>
	</g>
</g>
<g>
	<path fill="#FFFFFF" d="M752.848,187.12c-2.018,0-3.678-1.629-3.678-3.718s1.659-3.718,3.678-3.718
		c2.009,0,3.688,1.629,3.688,3.718S754.857,187.12,752.848,187.12z M752.848,180.294c-1.649,0-2.958,1.359-2.958,3.108
		c0,1.739,1.309,3.118,2.958,3.118c1.64,0,2.969-1.379,2.969-3.118C755.817,181.653,754.487,180.294,752.848,180.294z
		 M753.678,185.471l-0.36-0.649c-0.279-0.51-0.479-0.789-0.709-1.02c-0.08-0.08-0.141-0.12-0.271-0.13v1.799h-0.68v-4.157h1.269
		c0.93,0,1.35,0.539,1.35,1.189c0,0.64-0.41,1.139-1.029,1.139c0.149,0.08,0.419,0.48,0.64,0.83l0.609,0.999H753.678z
		 M752.718,181.873h-0.38v1.319h0.36c0.359,0,0.539-0.05,0.669-0.18c0.12-0.12,0.19-0.29,0.19-0.5
		C753.558,182.093,753.327,181.873,752.718,181.873z"/>
</g>
</svg>
